<svg width="22" height="24" viewBox="0 0 22 24" fill="none" xmlns="http://www.w3.org/2000/svg">
	<path d="M3.00015 10.9965V14.9965C3.00015 18.2964 3.00015 19.9463 4.02528 20.9714C5.0504 21.9965 6.70032 21.9965 10.0002 21.9965H12.0002C15.3 21.9965 16.9499 21.9965 17.975 20.9714C19.0002 19.9463 19.0002 18.2964 19.0002 14.9965V10.9965" stroke="#0256B2" stroke-width="2.21713" stroke-linecap="round" stroke-linejoin="round" />
	<path d="M2.00018 8.99646C2.00018 8.24877 2.00018 7.87492 2.20114 7.59646C2.3328 7.41404 2.52215 7.26255 2.75018 7.15723C3.09826 6.99646 3.56557 6.99646 4.50018 6.99646H17.5002C18.4348 6.99646 18.9021 6.99646 19.2502 7.15723C19.4782 7.26255 19.6676 7.41404 19.7992 7.59646C20.0002 7.87492 20.0002 8.24877 20.0002 8.99646C20.0002 9.74415 20.0002 10.118 19.7992 10.3965C19.6676 10.5789 19.4782 10.7304 19.2502 10.8357C18.9021 10.9965 18.4348 10.9965 17.5002 10.9965H4.50018C3.56557 10.9965 3.09826 10.9965 2.75018 10.8357C2.52215 10.7304 2.3328 10.5789 2.20114 10.3965C2.00018 10.118 2.00018 9.74415 2.00018 8.99646Z" stroke="#0256B2" stroke-width="2.21713" stroke-linejoin="round" />
	<path d="M5.00003 3.78217C5.00003 2.79595 5.79952 1.99646 6.78574 1.99646H7.14289C9.27313 1.99646 11 3.72336 11 5.8536V6.99646H8.21432C6.43912 6.99646 5.00003 5.55737 5.00003 3.78217Z" stroke="#0256B2" stroke-width="2.21713" stroke-linejoin="round" />
	<path d="M17.0001 3.78217C17.0001 2.79595 16.2006 1.99646 15.2143 1.99646H14.8572C12.727 1.99646 11.0001 3.72336 11.0001 5.8536V6.99646H13.7858C15.561 6.99646 17.0001 5.55737 17.0001 3.78217Z" stroke="#0256B2" stroke-width="2.21713" stroke-linejoin="round" />
	<path d="M11.0001 10.9965L11.0001 21.9965" stroke="#0256B2" stroke-width="2.21713" stroke-linecap="round" stroke-linejoin="round" />
</svg>
